<svg width="512" height="512" viewBox="0 0 512 512" fill="none" xmlns="http://www.w3.org/2000/svg">
<g clip-path="url(#clip0_2_336)">
<path d="M319 1C383.632 1 448.264 1 512.94 1C512.94 171.667 512.94 342.333 512.94 513C477.9 513 442.918 513 407.599 512.671C408.802 509.992 411.741 507.593 411.661 505.3C411.101 489.229 414.234 472.998 409.908 456.704C407.342 452.426 405.401 447.773 402.004 444.762C389.917 434.048 377.315 423.917 364.952 413.514C360.993 410.182 356.719 408.697 351.366 408.877C339.581 409.273 327.773 408.999 315.842 408.65C311.87 408.154 309.284 406.009 308.11 402.62C306.911 399.16 309.177 396.714 311.762 394.85C312.958 393.988 314.575 393.709 316.461 393.094C318.753 393.016 320.592 392.901 322.417 393.018C330.821 393.56 337.439 390.231 342.045 383.375C347.389 375.418 352.121 367.048 357.493 359.11C372.694 336.651 369.965 306.706 351.346 286.887C337.501 272.149 323.415 257.636 309.487 242.975C300.963 234.003 292.535 224.939 283.936 215.608C281.609 213.099 279.31 210.988 277.238 208.675C274.752 205.901 272.459 202.954 270.528 200.045C281.324 200.671 291.671 201.814 302.027 201.893C320.132 202.032 334.841 209.367 347.316 221.871C353.513 228.083 359.228 234.78 365.509 240.901C373.601 248.787 383.554 249.135 391.835 240.699C399.885 232.499 407.968 224.327 416.229 216.341C420.953 211.774 420.459 207.159 417.531 202.915C413.767 197.46 413.846 195.456 418.183 190.393C425.379 181.991 424.009 169.251 416.648 161.987C387.843 133.561 359.481 104.684 330.591 76.3462C325.001 70.8629 321.145 66.309 326.946 59.0264C327.032 58.9184 326.95 58.6914 327 58.537C331.377 44.8655 331.346 31.143 327.083 17.4976C325.25 11.6295 324.951 4.89413 319 1Z" fill="white"/>
<path d="M95 513C63.6816 513 32.3631 513 1.02234 513C1.02234 342.429 1.02234 171.859 1.02234 1C104.355 1 207.709 1 311.418 1.32518C309.888 3.22391 307.63 4.51297 306.184 6.41819C298.107 17.0588 287.498 24.7465 276.585 32.0397C254.933 46.5097 233.189 60.8411 211.443 75.1706C194.414 86.3926 178.625 99.2223 164.183 113.53C152.439 125.165 141.834 137.86 133.191 152.16C117.776 177.666 108.938 205.046 107.593 235.133C107.151 244.772 107.04 254.168 107.042 263.564C107.042 264.747 107.638 265.929 107.974 267.558C108.658 274.013 109.22 280.035 110.011 286.027C112.172 302.4 117.171 317.924 123.944 332.956C132.229 351.34 144.194 366.904 158.935 380.557C166.965 387.994 175.215 394.358 187.189 393.478C191.442 393.821 194.159 396.076 194.198 399.866C194.224 402.328 192.545 405.001 191.069 407.203C190.366 408.251 188.355 408.422 186.472 408.994C173.349 408.999 160.687 408.869 148.032 409.117C145.647 409.164 142.86 410.176 140.991 411.663C129.883 420.505 118.816 429.415 108.095 438.718C101.972 444.031 94.4247 448.322 92.0953 457.493C91.6898 459.997 91.1264 462.091 91.1113 464.188C91.0225 476.477 91.191 488.769 90.9912 501.056C90.9167 505.638 91.113 509.868 95 513Z" fill="white"/>
<path d="M107.957 234.89C108.938 205.046 117.776 177.666 133.191 152.16C141.834 137.86 152.439 125.165 164.183 113.53C178.625 99.2223 194.414 86.3926 211.443 75.1706C233.189 60.8411 254.933 46.5097 276.585 32.0397C287.498 24.7465 298.107 17.0588 306.184 6.41819C307.63 4.51297 309.888 3.22391 311.885 1.32518C312.75 1 314.378 0.915393 315.5 1.32518C312.388 11.716 308.981 22.2551 304.323 31.6544C296.906 46.6197 285.995 59.2406 273.807 70.6815C257.224 86.2481 240.482 101.654 224.227 117.556C220.885 120.825 217.676 125.838 217.319 130.282C215.412 154.055 223.802 173.792 243.853 187.249C251.861 192.623 261.214 195.286 270 199.5C272.376 202.372 274.752 205.901 277.237 208.675C279.31 210.988 281.938 213.683 284 216.5C277.712 216.277 271.113 215.354 265.099 213.93C236.82 207.236 216.711 190.726 205.787 163.523C204.922 161.368 204.213 159.148 203.5 156.936C202.858 154.945 202.31 152.923 201.445 149.972C193.852 167.415 189.465 184.372 187.775 202.258C186.62 214.49 187.002 226.393 189.645 238.266C193.62 256.129 203.154 270.939 215.566 284.038C224.602 293.574 233.764 302.992 242.944 312.39C264.803 334.767 275.508 361.568 274.561 392.905C245.061 393.034 216.031 393.1 187.001 393.165C175.215 394.358 166.965 387.994 158.935 380.557C144.194 366.904 132.229 351.34 123.944 332.956C117.171 317.924 112.172 302.4 110.011 286.027C109.22 280.035 108.658 274.013 107.989 267.082C107.976 255.736 107.967 245.313 107.957 234.89Z" fill="#00C1FF"/>
<path d="M270.528 200.045C261.297 195.868 251.861 192.623 243.853 187.249C223.802 173.792 215.412 154.055 217.319 130.282C217.676 125.838 220.885 120.825 224.227 117.556C240.482 101.654 257.224 86.2481 273.807 70.6815C285.995 59.2406 296.906 46.6197 304.323 31.6544C308.981 22.2551 311.51 11.8007 314.997 1.40979C316.067 1 317.133 1 318.6 1C324.951 4.89413 325.25 11.6295 327.083 17.4976C331.346 31.143 331.377 44.8655 327 58.537C326.95 58.6914 327.032 58.9184 326.946 59.0264C321.145 66.309 325.001 70.8629 330.591 76.3462C359.481 104.684 387.843 133.561 416.648 161.987C424.009 169.251 425.38 181.991 418.183 190.393C413.846 195.456 413.767 197.46 417.531 202.915C420.459 207.159 420.953 211.774 416.229 216.341C407.968 224.327 399.885 232.499 391.835 240.699C383.554 249.135 373.601 248.787 365.509 240.901C359.228 234.78 353.513 228.083 347.316 221.871C334.841 209.367 320.132 202.032 302.027 201.893C291.671 201.814 281.324 200.671 270.528 200.045ZM316.989 120.853C320.652 119.609 322.892 117.237 323.006 113.208C323.119 109.173 320.922 106.76 317.434 105.189C303.78 99.0411 291.027 101.418 278.564 108.818C275.24 110.792 271.337 112.037 267.537 112.901C263.062 113.92 258.827 117.634 259.046 121.3C259.271 125.075 263.759 129.365 268.144 128.839C272.651 128.299 277.079 126.717 281.41 125.211C284.594 124.103 287.565 122.382 290.852 120.83C292.596 125.631 294.943 129.156 299.849 128.895C305.677 128.586 306.814 123.785 307.676 119.146C310.766 119.802 313.485 120.38 316.989 120.853Z" fill="#0085FF"/>
<path d="M409.865 457.083C414.234 472.998 411.101 489.229 411.661 505.3C411.741 507.593 408.802 509.992 407.13 512.671C355.312 513 303.625 513 251.488 512.532C251.056 493.684 250.522 474.865 251 456.5C256.788 456.529 262.667 456.995 267.996 456.998C315.285 457.029 362.575 457.056 409.865 457.083Z" fill="#969389"/>
<path d="M251.09 456.926C251.073 475.305 251.536 493.153 251.5 512C199.793 512.468 147.625 513 95.4687 513C91.113 509.868 90.9167 505.638 90.9912 501.056C91.191 488.769 91.0225 476.477 91.1113 464.188C91.1264 462.091 91.6898 459.997 92.5504 457.471C98.4332 457.027 103.765 457.005 109.098 457.001C156.423 456.97 203.767 456.947 251.09 456.926Z" fill="#6A6A54"/>
<path d="M273.5 393.029C273.979 361.756 264.803 334.767 242.944 312.39C233.764 302.992 224.602 293.574 215.566 284.038C203.154 270.939 193.621 256.129 189.645 238.266C187.002 226.393 186.62 214.49 187.775 202.258C189.465 184.372 193.852 167.415 201.445 149.972C202.31 152.923 202.858 154.945 203.5 156.936C204.213 159.148 204.922 161.368 205.787 163.523C216.711 190.726 236.82 207.236 265.099 213.93C271.113 215.354 277.383 215.694 283.799 216.225C292.535 224.939 300.963 234.003 309.487 242.975C323.415 257.636 337.501 272.149 351.346 286.887C369.965 306.706 372.694 336.651 357.493 359.11C352.121 367.048 347.389 375.418 342.045 383.375C337.439 390.231 330.821 393.56 322.417 393.018C320.592 392.901 318.753 393.016 315.997 393.029C301.725 392.969 286.847 393.093 273.5 393.029Z" fill="#0085FF"/>
<path d="M409.908 456.704C362.575 457.055 315.285 457.029 267.996 456.998C262.667 456.995 257.339 456.969 251.551 456.94C251.09 456.926 251.069 456.931 251.062 456.462C251.081 440.385 247.517 424.539 248 408.877C269.766 408.802 294.666 409.019 315.975 408.998C327.773 408.999 339.581 409.272 351.367 408.877C356.719 408.697 360.993 410.182 364.952 413.514C377.316 423.917 389.917 434.048 402.004 444.762C405.401 447.773 407.342 452.426 409.908 456.704Z" fill="#C1BCB9"/>
<path d="M316 409C294.824 409.369 273.357 409.04 251.113 409.056C229.098 409.031 208.017 409.011 186.936 408.991C188.355 408.422 190.366 408.251 191.069 407.203C192.545 405.001 194.224 402.328 194.198 399.866C194.159 396.076 191.19 393.248 186.936 392.905C215.779 392.526 245.061 393.034 274.561 392.905C288.377 392.905 301.188 392.87 315 393C314.038 393.609 312.958 393.988 311.762 394.85C309.177 396.714 306.911 399.16 308.11 402.62C309.284 406.009 312.028 408.504 316 409Z" fill="#6A6A54"/>
<path d="M186.472 408.994C208.017 409.011 229.098 409.031 250.656 409.111C251.108 424.777 251.518 440.932 251.5 457C204.184 457.489 156.423 456.97 109.098 457.001C103.765 457.005 98.4332 457.027 92.6458 457.063C94.4247 448.322 101.972 444.031 108.095 438.718C118.816 429.415 129.883 420.505 140.991 411.663C142.86 410.176 145.647 409.164 148.033 409.117C160.687 408.869 173.349 408.999 186.472 408.994Z" fill="#969389"/>
<path d="M316.597 120.905C313.485 120.38 310.766 119.802 307.676 119.146C306.814 123.785 305.677 128.586 299.849 128.895C294.943 129.156 292.596 125.631 290.852 120.83C287.565 122.382 284.594 124.103 281.41 125.211C277.079 126.717 272.651 128.299 268.144 128.839C263.759 129.365 259.271 125.075 259.046 121.3C258.827 117.634 263.062 113.92 267.537 112.901C271.337 112.037 275.24 110.792 278.564 108.818C291.027 101.418 303.78 99.0411 317.434 105.189C320.922 106.76 323.119 109.173 323.005 113.208C322.892 117.237 320.652 119.609 316.597 120.905Z" fill="#00C0FF"/>
</g>
<defs>
<clipPath id="clip0_2_336">
<rect width="512" height="512" fill="white"/>
</clipPath>
</defs>
</svg>
